# xmcd
# Copyright (C) 1995-1998 Ti Kan
#
# Track frame offsets:
#       150
#       15225
#       33610
#       51182
#       66315
#       79915
#       94195
#       111522
#       127927
#       146265
#       166222
#       198177
#       212957
#       231320
#       251692
#       262467
#       279450
#
# Disc length: 3936 seconds
#
# Revision: 0
# Processed by: cddbd v1.4PL0 Copyright (c) Steve Scherf et al.
# Submitted via: CD-Transfer v1.0
#
DISCID=fc0f5e11
DTITLE=Toni Vescoli - Zytraffer
DYEAR=2000
DGENRE=
TTITLE0=De Köbel
TTITLE1=De Augie Und Ich
TTITLE2=Hey Baby, Was Isch Los?
TTITLE3=Mache Was I Will
TTITLE4=La Feria
TTITLE5=To Be Alone With You
TTITLE6=I've Been Lookin'
TTITLE7=What Have They Done To My Song, Ma?
TTITLE8=Hola Margarita
TTITLE9=Rose
TTITLE10=A Nestor Alamo. La Alpispa
TTITLE11=Für Immer Jung
TTITLE12=Rock'n' Roll Wie Früehner
TTITLE13=Rock'n' Roll Medley
TTITLE14=My Baby Left Me
TTITLE15=Sauterelles Medley
TTITLE16=You Gotta Move
EXTD=
EXTT0=
EXTT1=
EXTT2=
EXTT3=
EXTT4=
EXTT5=
EXTT6=
EXTT7=
EXTT8=
EXTT9=
EXTT10=
EXTT11=
EXTT12=
EXTT13=
EXTT14=
EXTT15=
EXTT16=
PLAYORDER=
